PathFileType	4	(X/Y/Z)	C:/Users/Carlo/Dropbox/Carlos/SARAH/CongressoMarcha2025/WorkshopOpenSim/C3D/Caso01/Walking 02.c3d.trc
DataRate	CameraRate	NumFrames	NumMarkers	Units	OrigDataRate	OrigDataStartFrame	OrigNumFrames
100.000000	100.000000	4	85	mm	100.000000	273	364
Frame#	Time	PELO			PELA			PELL			PELP			LFEO			LFEA			LFEL			LFEP			LTIO			LTIA			LTIL			LTIP			LFOO			LFOA			LFOL			LFOP			LTOO			LTOA			LTOL			LTOP			RFEO			RFEA			RFEL			RFEP			RTIO			RTIA			RTIL			RTIP			RFOO			RFOA			RFOL			RFOP			RTOO			RTOA			RTOL			RTOP			LASI			RASI			RPSI			LTHI			LKNE			LTIB			LANK			LHEE			LTOE			RTHI			RKNE			RTIB			RANK			RHEE			RTOE			LPSI			LHipAngles			LKneeAngles			LAbsAnkleAngle			LAnkleAngles			RHipAngles			RKneeAngles			RAnkleAngles			RAbsAnkleAngle			LPelvisAngles			RPelvisAngles			LFootProgressAngles			RFootProgressAngles			LHipPower			LKneePower			LAnklePower			RHipPower			RKneePower			RAnklePower			LGroundReactionForce			LNormalisedGRF			LAnkleForce			RAnkleForce			RKneeForce			LKneeForce			RHipForce			LHipForce			LGroundReactionMoment			LAnkleMoment			RAnkleMoment			RKneeMoment			LKneeMoment			RHipMoment			LHipMoment			
		X1	Y1	Z1	X2	Y2	Z2	X3	Y3	Z3	X4	Y4	Z4	X5	Y5	Z5	X6	Y6	Z6	X7	Y7	Z7	X8	Y8	Z8	X9	Y9	Z9	X10	Y10	Z10	X11	Y11	Z11	X12	Y12	Z12	X13	Y13	Z13	X14	Y14	Z14	X15	Y15	Z15	X16	Y16	Z16	X17	Y17	Z17	X18	Y18	Z18	X19	Y19	Z19	X20	Y20	Z20	X21	Y21	Z21	X22	Y22	Z22	X23	Y23	Z23	X24	Y24	Z24	X25	Y25	Z25	X26	Y26	Z26	X27	Y27	Z27	X28	Y28	Z28	X29	Y29	Z29	X30	Y30	Z30	X31	Y31	Z31	X32	Y32	Z32	X33	Y33	Z33	X34	Y34	Z34	X35	Y35	Z35	X36	Y36	Z36	X37	Y37	Z37	X38	Y38	Z38	X39	Y39	Z39	X40	Y40	Z40	X41	Y41	Z41	X42	Y42	Z42	X43	Y43	Z43	X44	Y44	Z44	X45	Y45	Z45	X46	Y46	Z46	X47	Y47	Z47	X48	Y48	Z48	X49	Y49	Z49	X50	Y50	Z50	X51	Y51	Z51	X52	Y52	Z52	X53	Y53	Z53	X54	Y54	Z54	X55	Y55	Z55	X56	Y56	Z56	X57	Y57	Z57	X58	Y58	Z58	X59	Y59	Z59	X60	Y60	Z60	X61	Y61	Z61	X62	Y62	Z62	X63	Y63	Z63	X64	Y64	Z64	X65	Y65	Z65	X66	Y66	Z66	X67	Y67	Z67	X68	Y68	Z68	X69	Y69	Z69	X70	Y70	Z70	X71	Y71	Z71	X72	Y72	Z72	X73	Y73	Z73	X74	Y74	Z74	X75	Y75	Z75	X76	Y76	Z76	X77	Y77	Z77	X78	Y78	Z78	X79	Y79	Z79	X80	Y80	Z80	X81	Y81	Z81	X82	Y82	Z82	X83	Y83	Z83	X84	Y84	Z84	X85	Y85	Z85	

274	2.73	103.7038116455079	932.2545776367192	-1996.099121093751	109.6223754882813	930.9994506835942	-2124.883300781251	-24.9724578857422	937.626342773438	-2002.065063476563	109.1277389526368	1061.062866210938	-1997.105224609376	42.79928588867189	529.846374511719	-2091.868164062501	75.78101348876956	622.5471801757815	-2495.656494140626	-371.4794311523439	533.872497558594	-2124.782470703126	39.36937713623048	934.9599609375005	-1999.143310546876	59.09974670410159	96.48709869384771	-2011.447143554688	144.2168884277344	24.41849517822267	-2417.052246093751	-352.5649414062501	65.97707366943362	-2092.414794921876	43.55320358276369	509.8027038574221	-2088.148193359376	50.73305511474612	84.16367340087893	-2166.637695312501	43.7941131591797	301.7744445800782	-2163.658691406251	-166.7682800292969	77.3324890136719	-2174.254150390626	43.21468734741212	80.94520568847659	-1949.049560546876	53.23921203613284	85.23645019531253	-2239.166748046876	50.9262619018555	157.7733764648438	-2238.173828125001	-19.26122283935548	82.95941925048831	-2241.705566406251	50.73307037353518	84.163688659668	-2166.637451171876	207.0655822753907	510.0803833007815	-2108.979003906251	236.0875854492189	628.7194824218752	-2528.500488281251	-227.1582336425782	480.3085937500002	-2147.437500000001	168.0382232666016	929.549438476563	-1993.054687500001	204.3747711181642	270.6534423828126	-1740.990478515626	165.8199310302735	-78.9590759277344	-1968.743286132813	-212.8706207275392	304.3653564453126	-1722.107177734376	206.9429321289064	499.1733398437502	-2092.215332031251	219.3150024414064	130.5645141601563	-1807.398071289063	213.766082763672	240.8110656738282	-1994.836791992188	1.858840942382813	127.2350997924805	-1802.918823242188	218.7162933349611	318.0556030273439	-1697.102905273438	219.5145721435548	68.06743621826175	-1844.163208007813	217.6648864746095	104.8163299560547	-1906.642700195313	147.0291748046876	66.9576110839844	-1842.670043945313	219.3150177001954	130.5645294189454	-1807.398071289063	2.685345649719239	1033.245361328125	-2048.914550781251	217.2167358398439	1024.289428710938	-2038.968017578126	150.694320678711	1025.660034179688	-1845.135131835938	-72.20314025878909	736.514343261719	-2053.815185546876	-15.01580905914307	530.4082641601565	-2096.461425781251	-15.0703992843628	288.3700561523439	-2061.106201171876	14.57265853881837	93.18701934814456	-2020.205078125001	54.21543884277347	57.91826629638675	-1946.824951171876	61.56737899780276	60.25711441040042	-2173.114501953126	288.0547485351564	782.3231811523442	-2026.387084960938	263.7113647460939	513.9642333984377	-2103.961914062501	277.6964416503907	420.2678833007815	-1983.068603515626	250.6766510009767	266.9124145507814	-1743.085937500001	200.4357299804689	304.6703186035157	-1677.711547851563	211.0300750732423	112.6809997558594	-1793.515136718751	38.23461532592775	1036.209350585938	-1854.776977539063	2.207954168319703	1.430884957313538	13.46811103820801	3.485625982284548	7.309566974639896	23.21015167236329	0	0	11.27125263214112	2.54980230331421	-9.060614585876468	11.41550922393799	-6.711442947387699	-0.6085976362228396	16.28320312500001	-1.749213576316834	11.31587600708008	72.49656677246097	1.574015140533448	-5.447456836700441	-2.59325122833252	0	0	-2.581527709960938	2.411148786544801	2.633507013320924	0.4475165307521822	-2.411148786544801	-2.633507013320924	0.4475165307521822	1.827270030975343	1.978774785995484	-90.8474044799805	-1.461733460426331	-0.1576931923627854	-30.4669704437256	nan	nan	nan	nan	nan	nan	nan	nan	nan	0	0.2269275784492494	0	0	-0.003025498474016787	0	0	0.02849074825644494	0	nan	nan	nan	nan	nan	nan	nan	nan	nan	0.02965665981173517	0.08201716840267184	-0.08771597594022754	0.1023486107587815	0.08604504913091662	-0.09242200851440432	nan	nan	nan	0.02791862562298776	1.114511609077454	-0.05547700077295306	nan	nan	nan	nan	nan	nan	nan	nan	nan	-1.136868351805172e-15	-6.461145877838138	-21.97334480285645	-12.20601654052735	-7.148629188537601	144.4913482666016	nan	nan	nan	-64.02986145019534	35.02583312988283	-53.59705734252933	nan	nan	nan	
275	2.74	104.0397415161133	935.2645874023442	-2010.386474609376	108.9974594116212	934.0351562500005	-2139.211669921876	-24.7085647583008	939.8383178710942	-2015.384887695313	108.6575393676758	1064.104125976563	-2011.438354492188	43.15123748779298	529.8408813476565	-2096.682373046876	72.40988922119143	613.6116333007815	-2503.368652343751	-372.0584716796876	532.324157714844	-2126.042724609376	39.66868591308595	937.570434570313	-2012.947265625001	59.41192245483401	96.82431793212896	-2012.280029296876	138.9848022460938	20.59977722167969	-2418.671142578126	-353.7750549316407	66.64219665527347	-2087.522460937501	43.9026222229004	509.8312072753909	-2092.782226562501	50.8045463562012	83.96205139160159	-2167.413085937501	43.61626434326173	301.5734863281251	-2165.164550781251	-166.7008361816407	76.85203552246097	-2174.647949218751	43.64747619628908	81.47699737548831	-1949.803222656251	53.19022369384768	84.79042053222659	-2239.949462890626	50.79412841796878	157.3275451660157	-2239.199951171876	-19.31156158447266	82.42041778564456	-2242.361083984376	50.8045349121094	83.96206665039065	-2167.412841796876	206.4313354492189	517.6718750000002	-2136.124267578126	232.9443664550782	648.4361572265627	-2551.535644531251	-227.4125061035157	489.2688293457034	-2172.754394531251	168.4107208251954	932.9587402343755	-2007.825805664063	205.093231201172	266.3186340332032	-1776.156372070313	168.8809661865235	-75.90444946289065	-2015.253662109376	-212.3782958984376	296.7375793457032	-1756.467651367188	206.3703155517579	506.2218017578127	-2119.726318359376	221.297576904297	129.6178436279297	-1849.015258789063	215.2958221435548	248.4822387695314	-2031.096557617188	3.865203857421877	124.3773651123047	-1845.269287109376	218.9579620361329	311.7225036621095	-1730.058471679688	222.0774536132814	68.91625976562503	-1888.667602539063	220.0768280029298	108.5377655029297	-1949.361328125001	149.5999755859376	67.16941833496097	-1887.418945312501	221.2975921630861	129.6178283691407	-1849.015258789063	2.00070881843567	1035.622924804688	-2062.445068359376	216.6568603515626	1027.997436523438	-2054.111328125001	151.8713378906251	1028.718139648438	-1859.712036132813	-71.55899047851565	737.1048583984377	-2062.241943359376	-14.70326900482178	530.1868896484377	-2100.773193359376	-15.01527118682862	288.5339355468751	-2062.810791015626	14.76323509216309	93.56285095214847	-2020.410400390626	54.22272872924808	58.18458557128909	-1946.886108398438	61.64703369140628	60.19527816772464	-2173.171386718751	288.4050598144532	787.558715820313	-2045.936767578126	263.1087646484376	521.3824462890627	-2131.338867187501	277.351287841797	424.3438415527346	-2013.283691406251	251.4190673828126	262.943084716797	-1778.341186523438	200.9363708496095	297.0143432617189	-1710.736206054688	213.1050262451173	111.4011993408204	-1835.867675781251	39.329891204834	1039.0556640625	-1868.658325195313	2.023212432861329	1.443499922752381	12.1692295074463	3.214726448059084	6.990265846252445	22.47017860412598	0	0	11.5986499786377	2.380192756652833	-8.367110252380375	11.72522068023682	-6.27987909317017	-0.7572360038757329	17.94457817077637	-1.63506829738617	10.78186130523682	72.32109832763675	1.602034926414491	-5.576805591583254	-1.777808070182801	0	0	-1.769394397735597	2.052601337432862	2.205234766006471	0.4677854180336001	-2.052601337432862	-2.205234766006471	0.4677854180336001	1.892840027809144	1.883612036705018	-90.65429687500003	-1.581102252006532	-0.6162635684013369	-33.15390396118165	nan	nan	nan	nan	nan	nan	nan	nan	nan	0	0.08312539756298068	0	0	0.07523651421070102	0	0	0.0248264502733946	0	nan	nan	nan	nan	nan	nan	nan	nan	nan	0.02719535678625108	0.06457704305648806	-0.08297292143106463	0.08950538188219073	0.06659613549709323	-0.1083436682820321	nan	nan	nan	0.02416083589196207	1.030023932456971	-0.1030864641070366	nan	nan	nan	nan	nan	nan	nan	nan	nan	-1.136868351805172e-15	-6.227330684661869	-19.5289535522461	-10.98007583618164	-6.825940608978275	124.7540359497071	nan	nan	nan	-51.57675933837893	29.39625549316408	-10.69402599334717	nan	nan	nan	
276	2.75	104.4242630004883	938.053100585938	-2024.632934570313	108.3599548339844	936.8146972656255	-2153.493408203126	-24.38529205322267	941.8425292968755	-2028.603515625001	108.2498931884766	1066.917846679688	-2025.754516601563	43.49280929565431	529.8196411132815	-2101.254394531251	69.08358001708987	604.4660644531252	-2510.604492187501	-372.5931701660157	530.9893188476565	-2127.052978515626	40.02194213867189	939.967163085938	-2026.679565429688	59.69939041137698	97.15556335449224	-2013.072265625001	134.0180969238282	16.98138427734376	-2420.103027343751	-354.864471435547	67.39434051513675	-2082.904296875001	44.24105834960939	509.8439941406252	-2097.183349609376	50.85268402099612	83.76313781738284	-2168.146972656251	43.47824859619142	301.374725341797	-2166.619628906251	-166.6578063964844	76.44026184082034	-2175.005859375001	44.0492401123047	82.00521087646487	-1950.518554687501	53.12047195434573	84.34912872314456	-2240.689697265626	50.66225051879886	156.8863067626954	-2240.180664062501	-19.38302230834962	81.90809631347659	-2242.976074218751	50.85260772705081	83.76316833496097	-2168.146972656251	205.6474761962892	525.1806640625002	-2162.389404296876	229.0349884033204	667.1602783203127	-2573.585693359376	-227.8093414306642	497.9315490722659	-2196.451660156251	168.8265533447266	936.139282226563	-2022.586181640626	205.7543945312501	260.536590576172	-1811.902221679688	172.6081848144532	-72.94705200195315	-2063.697265625001	-212.1116333007814	286.927703857422	-1791.847534179688	205.6523895263673	513.1289062500002	-2146.428466796876	223.0195465087892	127.7571182250977	-1891.461181640626	216.6080474853517	255.5318756103517	-2067.389648437501	5.619461059570314	120.9148406982422	-1888.507812500001	219.2205810546876	303.6693420410157	-1763.559692382813	224.2858734130861	69.11970520019534	-1934.094848632813	222.1488037109376	111.7113113403321	-1992.737670898438	151.8191833496094	66.838981628418	-1933.110473632813	223.0195312500001	127.7570953369141	-1891.461059570313	1.359156012535096	1037.773681640625	-2075.900146484376	216.1274261474611	1031.455444335938	-2069.279785156251	153.174301147461	1031.593627929688	-1874.337524414063	-70.88020324707034	737.647888183594	-2070.506347656251	-14.39579963684083	529.982360839844	-2104.843750000001	-14.95892715454102	288.7208862304689	-2064.437011718751	14.94348812103272	93.94256591796878	-2020.611083984376	54.22953796386722	58.45629882812503	-1946.950927734376	61.69910430908206	60.12502670288089	-2173.243652343751	288.827850341797	792.7248535156255	-2065.279541015626	262.3610229492189	528.7459106445315	-2157.932617187501	276.9148864746095	427.9592590332034	-2043.008544921876	252.1087951660157	257.6089477539064	-1814.126831054688	201.4756469726564	287.782196044922	-1744.373657226563	214.8962402343751	109.2598724365235	-1879.079345703126	40.55382919311525	1041.720581054688	-1882.529296875001	1.818064451217652	1.480627298355103	10.87068557739258	2.963840723037721	6.714583396911625	21.68721199035645	0	0	11.90138339996338	2.222058057785035	-7.718222141265873	12.01183319091798	-5.870876789093019	-0.8632995486259465	19.52021598815919	-1.429634690284729	10.10541152954102	71.79270935058597	1.592989802360536	-5.535056114196779	-1.040485978126526	0	0	-1.035624504089356	1.700384855270387	1.750124096870423	0.4986728727817538	-1.700384855270387	-1.750124096870423	0.4986728727817538	1.941798925399781	1.790502905845643	-90.46281433105472	-1.689222931861878	-1.00068998336792	-36.01998901367189	nan	nan	nan	nan	nan	nan	nan	nan	nan	0	-0.0290487762540579	0	0	0.1288642138242722	0	0	0.02220448479056359	0	nan	nan	nan	nan	nan	nan	nan	nan	nan	0.02360091917216779	0.04721905291080478	-0.08419203758239749	0.07777287811040881	0.06106902658939364	-0.126756489276886	nan	nan	nan	0.01951880939304829	0.9625446200370793	-0.1365389227867127	nan	nan	nan	nan	nan	nan	nan	nan	nan	-1.515824539659642e-15	-5.396294593811037	-18.11086654663087	-10.34144115447998	-5.928153038024904	106.0166854858399	nan	nan	nan	-39.6550750732422	24.69038581848146	25.34836196899415	nan	nan	nan	
277	2.76	104.8364944458008	940.5674438476567	-2038.849121093751	107.6891098022462	939.290405273438	-2167.737548828126	-24.02217864990236	943.5962524414067	-2041.731079101563	107.8929595947266	1069.451904296875	-2040.058471679688	43.82178497314455	529.7628173828127	-2105.650878906251	65.7618103027344	595.1511840820315	-2517.405029296876	-373.078094482422	529.8286132812502	-2127.854736328126	40.40905761718751	942.1013793945317	-2040.351562500001	59.97686004638675	97.48223876953131	-2013.832275390626	129.2418060302735	13.50875854492188	-2421.364501953126	-355.831512451172	68.21278381347659	-2078.472656250001	44.56704330444337	509.8213806152346	-2101.415283203126	50.87894058227542	83.56731414794925	-2168.846923828126	43.36402130126955	301.1778564453126	-2168.032226562501	-166.6378936767579	76.07984924316409	-2175.316162109376	44.44163513183595	82.530143737793	-1951.202758789063	53.02469635009768	83.91301727294925	-2241.394531250001	50.51968383789065	156.4498596191407	-2241.123046875001	-19.48091125488282	81.41715240478518	-2243.551025390626	50.87886428833011	83.5673522949219	-2168.846679687501	204.7420043945314	532.4629516601565	-2187.720214843751	224.3242645263673	684.6885375976565	-2594.678222656251	-228.3037109375001	506.0375061035159	-2218.442382812501	169.2639465332032	939.0336914062505	-2037.346679687501	206.3642578125001	253.443328857422	-1848.244262695313	176.7870788574219	-69.8467712402344	-2113.819335937501	-212.0185852050782	275.3123779296876	-1828.270507812501	204.8158264160157	519.7637939453127	-2172.269531250001	224.5150604248048	125.1327514648438	-1934.644531250001	217.705535888672	261.9541015625001	-2103.617675781251	7.151687622070316	116.9506835937501	-1932.510131835938	219.5018463134767	294.0449218750001	-1797.670532226563	226.1861419677736	68.82871246337893	-1980.302734375001	223.9162139892579	114.4358596801758	-2036.627075195313	153.7316894531251	66.10132598876956	-1979.591186523438	224.5150909423829	125.1327819824219	-1934.644653320313	0.7465852499008181	1039.65478515625	-2089.285400390626	215.6143341064454	1034.604370117188	-2084.479736328126	154.5742797851563	1034.225830078125	-1889.012451171876	-70.17615509033206	738.1072387695315	-2078.639160156251	-14.09612846374512	529.771911621094	-2108.735595703126	-14.89302062988282	288.9221191406251	-2066.004150390626	15.12525272369385	94.32505798339847	-2020.804809570313	54.24445343017581	58.72782135009768	-1947.021606445313	61.72623443603518	60.04993057250979	-2173.326660156251	289.3086547851564	797.7449340820317	-2084.420410156251	261.4940490722657	535.9260864257815	-2183.694091796876	276.4161071777345	431.0323791503909	-2072.229003906251	252.7481689453126	251.0188446044923	-1850.458618164063	202.0340270996095	277.1013793945314	-1778.715820312501	216.443817138672	106.3925323486329	-1923.053100585938	41.88135528564455	1044.149658203125	-1896.392700195313	1.597399950027467	1.536216855049134	9.578125000000004	2.732710838317872	6.47383546829224	20.87720298767091	0	0	12.18766689300538	2.073242664337159	-7.105694293975834	12.28345108032227	-5.495015621185305	-0.9130193591117863	20.99864387512208	-1.126875519752503	9.311255455017093	70.92436218261722	1.555686235427857	-5.362813472747805	-0.384418457746506	0	0	-0.3827596604824068	1.358434081077576	1.268202304840088	0.5376354455947878	-1.358434081077576	-1.268202304840088	0.5376354455947878	1.978691458702088	1.694128632545472	-90.27302551269534	-1.794373989105225	-1.320571899414063	-39.03924560546876	nan	nan	nan	nan	nan	nan	nan	nan	nan	0	-0.1093893945217133	0	0	0.1620347946882248	0	0	0.01992737129330636	0	nan	nan	nan	nan	nan	nan	nan	nan	nan	0.01925394125282765	0.03071535192430021	-0.09032426029443744	0.06681785732507708	0.06754884123802188	-0.14630526304245	nan	nan	nan	0.01390756946057082	0.9112737178802495	-0.1559555232524872	nan	nan	nan	nan	nan	nan	nan	nan	nan	-3.789561349149106e-16	-4.130966663360597	-17.54106903076173	-10.25427150726319	-4.616478919982912	88.85564422607425	nan	nan	nan	-28.62652969360353	21.08932113647462	54.43994140625003	nan	nan	nan	
